G04 ================== begin FILE IDENTIFICATION RECORD ==================*
G04 Layout Name:  EEET2602_ASM4_PCB_DESIGN_2.brd*
G04 Film Name:    TOP*
G04 File Format:  Gerber RS274X*
G04 File Origin:  Cadence Allegro 17.2-S002*
G04 Origin Date:  Thu Sep 01 22:23:52 2022*
G04 *
G04 Layer:  ETCH/TOP*
G04 Layer:  PIN/TOP*
G04 Layer:  VIA CLASS/TOP*
G04 *
G04 Offset:    (0.00 0.00)*
G04 Mirror:    No*
G04 Mode:      Positive*
G04 Rotation:  0*
G04 FullContactRelief:  No*
G04 UndefLineWidth:     0.00*
G04 ================== end FILE IDENTIFICATION RECORD ====================*
%FSLAX25Y25*MOIN*%
%IR0*IPPOS*OFA0.00000B0.00000*MIA0B0*SFA1.00000B1.00000*%
%ADD10C,.07*%
%ADD11C,.075*%
%ADD12R,.07X.07*%
%ADD14R,.03937X.13386*%
%ADD16R,.12283X.08858*%
%ADD13R,.11417X.2126*%
%ADD15R,.42126X.33858*%
%ADD17C,.03*%
%ADD18C,.025*%
G75*
%LPD*%
G75*
G54D10*
X24000Y59000D03*
Y69000D03*
X303000Y90000D03*
Y100000D03*
G54D11*
X50000Y21000D03*
Y81000D03*
X80000Y21000D03*
Y81000D03*
X110000Y120000D03*
Y150000D03*
X130000Y120000D03*
Y150000D03*
X216000Y120000D03*
X234000D03*
X216000Y150000D03*
X234000D03*
X255000Y36000D03*
Y76000D03*
Y99000D03*
Y139000D03*
X276000Y36000D03*
Y76000D03*
Y99000D03*
Y139000D03*
G54D12*
X50000Y60000D03*
Y120000D03*
X80000Y60000D03*
Y120000D03*
G54D13*
X30906Y160000D03*
X69094D03*
X118906Y42000D03*
X157094D03*
G54D14*
X171000Y105268D03*
X164307D03*
X157614D03*
X184386D03*
X177693D03*
G54D15*
X171000Y147000D03*
G54D16*
X216000Y94780D03*
Y67220D03*
G54D17*
G01X69094Y160000D02*
Y179908D01*
X66002Y183000D01*
X21000D01*
X9000Y171000D01*
Y48000D01*
X18000Y39000D01*
X87000D01*
X108000Y18000D01*
X150000D01*
X157094Y25094D01*
Y42000D01*
G01X30906Y160000D02*
X23197D01*
X18000Y154803D01*
Y111000D01*
X36000Y93000D01*
X114000D01*
X131308Y75692D01*
X132692D01*
G01X50000Y60000D02*
Y81000D01*
G01X24000Y59000D02*
Y51000D01*
X27000Y48000D01*
X75000D01*
X80000Y53000D01*
Y60000D01*
G01X24000Y69000D02*
Y78000D01*
X27000Y81000D01*
X50000D01*
G01Y120000D02*
X80000D01*
G01Y60000D02*
Y81000D01*
G01X110000Y150000D02*
X102000D01*
X80000Y128000D01*
Y120000D01*
G01X216000Y150000D02*
Y182500D01*
X213000Y185500D01*
X108500D01*
X83000Y160000D01*
X69094D01*
G01X110000Y150000D02*
X130000D01*
G01X118906Y42000D02*
Y61906D01*
X132692Y75692D01*
G01D02*
X164307D01*
G01X157614Y105268D02*
Y93000D01*
X154614Y90000D01*
X144000D01*
X141000Y93000D01*
Y147000D01*
X138000Y150000D01*
X130000D01*
G01X164307Y105268D02*
Y75692D01*
G01D02*
X172779Y67220D01*
X216000D01*
G01X184386Y93000D02*
X181386Y90000D01*
X174000D01*
X171000Y93000D01*
Y105268D01*
G01X177693D02*
Y113961D01*
X180732Y117000D01*
X198000D01*
X201000Y114000D01*
Y87000D01*
X204000Y84000D01*
X243000D01*
G01X184386Y105268D02*
Y93000D01*
G01X216000Y150000D02*
X234000D01*
G01X243000Y84000D02*
Y48000D01*
X255000Y36000D01*
G01Y99000D02*
X243000Y87000D01*
Y84000D01*
G01X255000Y76000D02*
Y84000D01*
X270000Y99000D01*
X276000D01*
G01Y76000D02*
X288000Y88000D01*
Y108000D01*
X282000Y114000D01*
X270000D01*
X255000Y99000D01*
G01Y139000D02*
X254000D01*
X243000Y150000D01*
X234000D01*
G01X276000Y139000D02*
X271000Y144000D01*
X260000D01*
X255000Y139000D01*
G01X303000Y100000D02*
Y133000D01*
X297000Y139000D01*
X276000D01*
G01X299500Y90000D02*
X303000D01*
G54D18*
G01X50000Y21000D02*
X80000D01*
G01X112964Y106036D02*
X40964D01*
X30000Y117000D01*
Y135000D01*
X33000Y138000D01*
X75000D01*
X111000Y174000D01*
X201500D01*
X204000Y171500D01*
Y131500D01*
G01X235248Y9000D02*
X102000D01*
X90000Y21000D01*
X80000D01*
G01X112964Y106036D02*
X110000Y109000D01*
Y120000D01*
G01X130000D02*
Y108536D01*
X127500Y106036D01*
X112964D01*
G01X204000Y131500D02*
X195500Y123000D01*
X174000D01*
X171000Y120000D01*
Y105268D01*
G01X235248Y9000D02*
Y71252D01*
X228500Y78000D01*
X189000D01*
X184386Y82614D01*
Y93000D01*
G01X234000Y120000D02*
X216000D01*
G01D02*
Y94780D01*
G01X204000Y131500D02*
X204500Y132000D01*
X213000D01*
X216000Y129000D01*
Y120000D01*
G01X276000Y36000D02*
X249000Y9000D01*
X235248D01*
G01X276000Y36000D02*
X303000Y63000D01*
Y90000D01*
M02*
